<svg xmlns="http://www.w3.org/2000/svg" width="410" height="404" viewBox="0 0 410 404" fill="none">
  <path d="M399.641 59.5248L229.679 383.548c-3.49 6.648-13.017 6.68-16.551.055L10.3536 59.5171c-3.8568-6.174 1.4243-13.83 8.6478-12.546l186.774 33.39c1.061.19 2.147.19 3.208 0l186.838-33.398c7.221-1.29 12.503 6.364 8.66 12.56Z" fill="#646CFF"/>
  <path d="M291.965 12.9658L153.743 38.7328c-2.257.421-3.917 2.377-3.919 4.673l-.36 56.65c-.003 2.866 2.578 5.07 5.414 4.632l38.438-5.936c3.592-.555 6.682 2.764 5.694 6.27l-11.426 40.533c-1.029 3.653 2.289 7.02 5.977 6.056l23.726-6.207c3.694-.966 7.016 2.412 5.973 6.064l-18.165 63.613c-1.135 3.975 4.129 7.016 7.207 4.168l2.055-1.902c2.074-1.92 2.755-4.872 1.73-7.506l-12.78-32.85c-.985-2.53.122-5.378 2.55-6.572l61.188-30.102c2.93-1.442 3.667-5.296 1.503-7.714l-4.564-5.1c-1.612-1.8-4.12-2.45-6.373-1.654l-41.94 14.82c-3.73 1.318-7.247-2.147-6.085-5.936l20.694-67.54c.963-3.145-1.679-6.223-4.93-5.736l-45.743 6.855c-3.04.456-5.685-2.07-5.575-5.135l1.46-40.94c.083-2.336 1.758-4.3 4.074-4.77l111.498-22.52c2.872-.58 4.789-3.276 4.3-6.167l-.69-4.07c-.518-3.05-3.448-5.098-6.51-4.55Z" fill="#FFB74A"/>
</svg>
